# AST/ASF file generated using VICON BodyLanguage
# -----------------------------------------------
:version 1.10
:name VICON
:units
  mass 1.0
  length 0.45
  angle deg
:documentation
   .ast/.asf automatically generated from VICON data using
   VICON BodyBuilder and BodyLanguage model FoxedUp or BRILLIANT.MOD
:root
   order TX TY TZ RX RY RZ
   axis XYZ
   position 0 0 0  
   orientation 0 0 0 
:bonedata
  begin
     id 1 
     name lhipjoint
     direction 0.690799 -0.707083 0.151096 
     length 2.54797 
     axis 0 0 0  XYZ
  end
  begin
     id 2 
     name lfemur
     direction 0.34202 -0.939693 0  
     length 7.21646  
     axis 0 0 20  XYZ
    dof rx ry rz
    limits (-160.0 20.0)
           (-70.0 70.0)
           (-60.0 70.0)
  end
  begin
     id 3 
     name ltibia
     direction 0.34202 -0.939693 0   
     length 8.16759   
     axis 0 0 20   XYZ
    dof rx
    limits (-10.0 170.0)
  end
  begin
     id 4 
     name lfoot
     direction 0.0487203 -0.133858 0.989802   
     length 1.93375   
     axis -90 7.62852e-016 20   XYZ
    dof rx rz
    limits (-45.0 90.0)
           (-70.0 20.0)
  end
  begin
     id 5 
     name ltoes
     direction 1.53453e-011 -4.21783e-011 1   
     length 0.979747   
     axis -90 7.62852e-016 20   XYZ
    dof rx
    limits (-90.0 20.0)
  end
  begin
     id 6 
     name rhipjoint
     direction -0.694693 -0.703425 0.150315   
     length 2.56122  
     axis 0 0 0  XYZ 
  end
  begin
     id 7 
     name rfemur
     direction -0.34202 -0.939693 0   
     length 7.36786   
     axis 0 0 -20   XYZ
    dof rx ry rz
    limits (-160.0 20.0)
           (-70.0 70.0)
           (-70.0 60.0)
  end
  begin
     id 8 
     name rtibia
     direction -0.34202 -0.939693 0   
     length 8.07288   
     axis 0 0 -20   XYZ
    dof rx
    limits (-10.0 170.0)
 end
 begin
     id 9 
     name rfoot
     direction -0.0428397 -0.117701 0.992125   
     length 1.88295  
     axis -90 -7.62852e-016 -20   XYZ
    dof rx rz
    limits (-45.0 90.0)
           (-20.0 70.0)
  end
  begin
     id 10 
     name rtoes
     direction -1.53456e-011 -4.2187e-011 1   
     length 0.955578   
     axis -90 -7.62852e-016 -20   XYZ
    dof rx
    limits (-90.0 20.0)
  end
  begin
     id 11 
     name lowerback
     direction 0.0288145 0.999398 -0.0193241   
     length 1.92149   
     axis 0 0 0   XYZ
    dof rx ry rz
    limits (-20.0 45.0)
           (-30.0 30.0)
           (-30.0 30.0)
  end
  begin
     id 12 
     name upperback
     direction 0.0233784 0.998099 0.0570278   
     length 1.90435   
     axis 0 0 0   XYZ
    dof rx ry rz
    limits (-20.0 45.0)
           (-30.0 30.0)
           (-30.0 30.0)
  end
  begin
     id 13 
     name thorax
     direction 0.0096694 0.997833 0.0650817   
     length 1.9111   
     axis 0 0 0   XYZ
    dof rx ry rz
    limits (-20.0 45.0)
           (-30.0 30.0)
           (-30.0 30.0)
  end
  begin
     id 14 
     name lowerneck
     direction 0.00516803 0.999916 0.0118722   
     length 1.74664   
     axis 0 0 0   XYZ
    dof rx ry rz
    limits (-20.0 45.0)
           (-30.0 30.0)
           (-30.0 30.0)
  end
  begin
     id 15 
     name upperneck
     direction -0.0510851 0.996117 -0.071696   
     length 1.68498   
     axis 0 0 0   XYZ
    dof rx ry rz
    limits (-20.0 45.0)
           (-30.0 30.0)
           (-30.0 30.0)
  end
  begin
     id 16
     name head
     direction -0.019188 0.999436 -0.0275702  
     length 1.83483  
     axis 0 0 0   XYZ
    dof rx ry rz
    limits (-20.0 45.0)
           (-30.0 30.0)
           (-30.0 30.0)
  end
  begin
     id 17 
     name lclavicle
     direction 0.967006 0.248456 -0.0562957  
     length 3.39395  
     axis 0 0 0   XYZ
    dof ry rz
    limits (-20.0 10.0)
           (0.0 20.0)
  end
  begin
     id 18 
     name lhumerus
     direction 1 -4.48962e-011 -5.62711e-019   
     length 5.24318   
     axis 180 -30 -90   XYZ
    dof rx ry rz
    limits (-60.0 90.0)
           (-90.0 90.0)
           (-90.0 90.0)
  end
  begin
     id 19
     name lradius
     direction 1 -4.48966e-011 7.90625e-027   
     length 2.98999   
     axis 180 -30 -90   XYZ
    dof rx
    limits (-10.0 170.0)
  end
  begin
     id 20
     name lwrist
     direction 1 -4.48959e-011 1.61068e-026   
     length 1.49499   
     axis -9.31229e-015 90 90   XYZ
    dof ry
    limits (-180.0 0.0)
 end
  begin
     id 21 
     name lhand
     direction 1 -4.49017e-011 3.22136e-026   
     length 0.726745   
     axis -2.0555e-014 90 90   XYZ
    dof rx rz
    limits (-90.0 90.0)
           (-45.0 45.0)
  end
  begin
     id 22 
     name lfingers
     direction 1 -4.4898e-011 6.44272e-026   
     length 0.58592   
     axis -4.11101e-014 90 90   XYZ
    dof rx
    limits (0.0 90.0)
  end
  begin
     id 23
     name lthumb
     direction 0.707107 -6.34922e-011 0.707107   
     length 0.841268   
     axis -90 45 2.85299e-015   XYZ
    dof rx rz
    limits (-45.0 45.0)
           (-45.0 45.0)
  end
  begin
     id 24 
     name rclavicle
     direction -0.972232 0.230238 0.0419005   
     length 3.40416  
     axis 0 0 0   XYZ 
    dof ry rz
    limits (-10.0 20.0)
           (-20.0 0.0)
  end
  begin
     id 25 
     name rhumerus
     direction -1 -4.48976e-011 2.48487e-027  
     length 5.37045   
     axis 180 30 90   XYZ
    dof rx ry rz
    limits (-90.0 60.0)
           (-90.0 90.0)
           (-90.0 90.0)
  end
  begin
     id 26 
     name rradius
     direction -1 -4.48942e-011 7.87951e-027   
     length 2.92792   
     axis 180 30 90   XYZ
    dof rx
    limits (-10.0 170.0)
  end
  begin
     id 27 
     name rwrist
     direction -1 -4.48969e-011 1.61068e-026   
     length 1.46396   
     axis -9.31229e-015 -90 -90   XYZ
    dof ry
    limits (-180.0 0.0)
  end
  begin
     id 28
     name rhand
     direction -1 -4.49043e-011 3.22136e-026   
     length 0.784497   
     axis -2.0555e-014 -90 -90   XYZ
    dof rx rz
    limits (-90.0 90.0)
           (-45.0 45.0)
  end
  begin
     id 29
     name rfingers
     direction -1 -4.48823e-011 6.44272e-026   
     length 0.632482   
     axis -4.11101e-014 -90 -90   XYZ
    dof rx
    limits (0.0 90.0)
  end
  begin
     id 30
     name rthumb
     direction -0.707107 -6.34923e-011 0.707107   
     length 0.908121   
     axis -90 -45 -2.85299e-015   XYZ
    dof rx rz
    limits (-45.0 45.0)
           (-45.0 45.0)
  end
:hierarchy
  begin
    root lhipjoint rhipjoint lowerback
    lhipjoint lfemur
    lfemur ltibia
    ltibia lfoot
    lfoot ltoes
    rhipjoint rfemur
    rfemur rtibia
    rtibia rfoot
    rfoot rtoes
    lowerback upperback
    upperback thorax
    thorax lowerneck lclavicle rclavicle
    lowerneck upperneck
    upperneck head
    lclavicle lhumerus
    lhumerus lradius
    lradius lwrist
    lwrist lhand lthumb
    lhand lfingers
    rclavicle rhumerus
    rhumerus rradius
    rradius rwrist
    rwrist rhand rthumb
    rhand rfingers
  end

#!OML:ASF E:\Style6\Style6.ASF
:FULLY-SPECIFIED
:DEGREES
1457
root 0.655125 17.4113 -1.78979 15.2501 4.02036 -0.431692
lowerback 28.1245 0.644455 2.61512
upperback 12.4586 1.61145 2.64102
thorax -1.58314 0.818381 0.932051
lowerneck 3.52884 6.41707 3.56597
upperneck -22.1663 6.8682 -13.714
head -6.61686 4.32851 -5.51064
rclavicle 1.51076e-014 2.46493e-014
rhumerus 17.0106 23.762 -85.2906
rradius 123.561
rwrist 41.3601
rhand -5.62268 2.83822
rfingers 7.12502
rthumb 20.195 -26.132
lclavicle 1.51076e-014 2.46493e-014
lhumerus 16.254 -32.6476 82.881
lradius 113.539
lwrist -23.8736
lhand -17.2296 21.3031
lfingers 7.12502
lthumb 9.01381 51.0905
rfemur -42.667 -8.1321 20.4056
rtibia 38.884
rfoot -6.09829 -9.60093
rtoes -10.0391
lfemur -43.0471 -1.33731 -18.6603
ltibia 41.1846
lfoot -7.13256 4.62383
ltoes -20.761
1458
root 0.658163 17.4013 -1.79274 15.2795 3.98356 -0.380189
lowerback 28.3217 0.612959 2.61526
upperback 12.3221 1.57962 2.54909
thorax -1.82461 0.802807 0.836225
lowerneck 3.62635 6.7341 3.55025
upperneck -22.2594 7.26017 -14.0044
head -6.61344 4.55437 -5.62824
rclavicle 1.03368e-014 1.59028e-014
rhumerus 16.7012 23.7557 -85.5173
rradius 123.635
rwrist 41.2044
rhand -5.68143 2.91882
rfingers 7.12502
rthumb 20.1386 -26.0574
lclavicle 1.03368e-014 1.59028e-014
lhumerus 15.9913 -32.7492 82.9918
lradius 113.721
lwrist -24.142
lhand -17.2884 21.4673
lfingers 7.12502
lthumb 8.95704 51.2572
rfemur -42.8089 -8.08434 20.3119
rtibia 39.0752
rfoot -6.14595 -9.59959
rtoes -9.8659
lfemur -43.1756 -1.28167 -18.7516
ltibia 41.3591
lfoot -7.21555 4.62747
ltoes -20.7239
1459
root 0.661323 17.3861 -1.79776 15.3318 3.95638 -0.330613
lowerback 28.5869 0.639669 2.52772
upperback 12.1499 1.60853 2.56593
thorax -2.14341 0.809338 0.890817
lowerneck 3.61708 6.98573 3.48362
upperneck -22.2608 7.54388 -14.3731
head -6.56931 4.73321 -5.74775
rclavicle -9.54166e-015 -6.36111e-015
rhumerus 16.3924 23.7048 -85.537
rradius 123.78
rwrist 40.8124
rhand -5.53345 3.01801
rfingers 7.12502
rthumb 20.2808 -25.9431
lclavicle -9.54166e-015 -6.36111e-015
lhumerus 15.6703 -32.8438 83.3498
lradius 114.027
lwrist -24.7145
lhand -16.7929 22.1811
lfingers 7.12502
lthumb 9.43521 51.9499
rfemur -43.0279 -8.03821 20.2262
rtibia 39.3211
rfoot -6.25539 -9.57699
rtoes -9.27621
lfemur -43.3546 -1.25027 -18.8184
ltibia 41.5548
lfoot -7.33589 4.59178
ltoes -20.0253
1460
root 0.662503 17.3704 -1.80371 15.3722 3.97297 -0.407355
lowerback 29.0897 0.702932 2.46236
upperback 11.8259 1.70951 2.70193
thorax -2.74463 0.844986 1.03738
lowerneck 3.66368 7.18544 3.34809
upperneck -22.1341 7.76277 -14.6929
head -6.50621 4.87836 -5.83232
rclavicle 2.22639e-014 0
rhumerus 15.8954 23.6812 -85.4578
rradius 123.926
rwrist 40.6025
rhand -5.46938 3.09298
rfingers 7.12502
rthumb 20.3424 -25.8616
lclavicle 2.22639e-014 0
lhumerus 15.1705 -32.9764 83.9653
lradius 114.19
lwrist -25.0156
lhand -16.7577 22.4178
lfingers 7.12502
lthumb 9.4691 52.1851
rfemur -43.2507 -7.95664 20.2827
rtibia 39.5839
rfoot -6.27638 -9.55707
rtoes -10.0048
lfemur -43.597 -1.16554 -18.7494
ltibia 41.8022
lfoot -7.46233 4.43506
ltoes -19.2405
1461
root 0.663668 17.3577 -1.80997 15.3555 3.98132 -0.412158
lowerback 29.508 0.719996 2.36097
upperback 11.6029 1.73185 2.75269
thorax -3.19186 0.846466 1.1371
lowerneck 3.63727 7.41741 3.27028
upperneck -22.001 8.03713 -15.0043
head -6.41936 5.04315 -5.92044
rclavicle -8.74653e-015 -1.51076e-014
rhumerus 15.5182 23.7496 -85.4595
rradius 124.025
rwrist 40.6465
rhand -5.51831 3.23727
rfingers 7.12502
rthumb 20.2953 -25.7223
lclavicle -8.74653e-015 -1.51076e-014
lhumerus 14.788 -33.0447 84.3317
lradius 114.285
lwrist -25.1783
lhand -17.0588 22.3551
lfingers 7.12502
lthumb 9.17862 52.1353
rfemur -43.4098 -7.94367 20.2755
rtibia 39.8373
rfoot -6.11477 -9.54127
rtoes -11.9681
lfemur -43.7759 -1.06314 -18.7904
ltibia 42.0937
lfoot -7.55595 4.29123
ltoes -19.3221
1462
root 0.664138 17.3452 -1.8171 15.3539 4.00815 -0.456273
lowerback 29.3804 0.643255 2.4631
upperback 11.7455 1.64702 2.66336
thorax -2.96616 0.81304 1.00947
lowerneck 3.31409 7.64812 3.20585
upperneck -22.0643 8.31886 -15.2231
head -6.3452 5.20178 -5.97593
rclavicle -1.82882e-014 -2.22639e-014
rhumerus 15.7788 23.7984 -85.436
rradius 124.085
rwrist 40.6709
rhand -5.38114 3.31083
rfingers 7.12502
rthumb 20.4272 -25.6347
lclavicle -1.82882e-014 -2.22639e-014
lhumerus 15.0796 -33.0697 84.0891
lradius 114.421
lwrist -25.2314
lhand -17.2792 22.41
lfingers 7.12502
lthumb 8.96592 52.1995
rfemur -43.5631 -7.94202 20.3158
rtibia 40.0609
rfoot -6.18625 -9.49735
rtoes -11.7138
lfemur -43.9992 -0.929873 -18.8092
ltibia 42.4362
lfoot -7.62182 4.18568
ltoes -20.2931
1463
root 0.663927 17.3302 -1.82431 15.3553 4.08591 -0.631857
lowerback 29.1968 0.57429 2.63562
upperback 11.9154 1.59248 2.6709
thorax -2.68515 0.794552 0.939631
lowerneck 3.09884 7.80791 3.13134
upperneck -22.2658 8.47258 -15.5259
head -6.3424 5.31289 -6.0675
rclavicle -7.95139e-015 -3.97569e-015
rhumerus 16.1524 23.8644 -85.2766
rradius 124.108
rwrist 40.7024
rhand -5.27052 3.32431
rfingers 7.12502
rthumb 20.5335 -25.6098
lclavicle -7.95139e-015 -3.97569e-015
lhumerus 15.3898 -33.0525 83.9703
lradius 114.543
lwrist -25.2819
lhand -17.2946 22.448
lfingers 7.12502
lthumb 8.95107 52.2382
rfemur -43.7159 -7.91472 20.502
rtibia 40.2661
rfoot -6.29005 -9.48217
rtoes -11.3553
lfemur -44.268 -0.830213 -18.652
ltibia 42.801
lfoot -7.7338 4.08352
ltoes -20.3472
1464
root 0.663507 17.3142 -1.83303 15.3521 4.12858 -0.804801
lowerback 29.8361 0.632739 2.52376
upperback 11.5255 1.68915 2.87156
thorax -3.42596 0.823445 1.18427
lowerneck 3.26085 7.90658 3.01489
upperneck -22.0838 8.55504 -15.8305
head -6.29436 5.3873 -6.14726
rclavicle 2.70347e-014 3.18055e-015
rhumerus 15.6275 24.0795 -85.1984
rradius 124.155
rwrist 40.74
rhand -5.25988 3.16822
rfingers 7.12502
rthumb 20.5437 -25.7648
lclavicle 2.70347e-014 3.18055e-015
lhumerus 14.6907 -33.0853 84.7332
lradius 114.691
lwrist -25.5294
lhand -17.2735 22.4269
lfingers 7.12502
lthumb 8.97147 52.2162
rfemur -43.8695 -7.79765 20.6524
rtibia 40.4502
rfoot -6.32667 -9.5196
rtoes -11.3861
lfemur -44.5385 -0.723248 -18.491
ltibia 43.1588
lfoot -7.91547 3.987
ltoes -19.3769
1465
root 0.663445 17.2991 -1.84134 15.4049 4.08877 -0.910141
lowerback 29.1692 0.518189 2.79277
upperback 12.0133 1.55447 2.63828
thorax -2.55582 0.782622 0.82697
lowerneck 2.85262 7.98545 3.11241
upperneck -22.4978 8.61495 -16.0439
head -6.3282 5.43356 -6.23758
rclavicle -2.38542e-014 -2.94201e-014
rhumerus 16.529 24.0155 -85.1533
rradius 124.065
rwrist 40.7843
rhand -5.21479 3.06601
rfingers 7.12502
rthumb 20.587 -25.8623
lclavicle -2.38542e-014 -2.94201e-014
lhumerus 15.6975 -33.0169 84.0446
lradius 114.719
lwrist -25.6256
lhand -17.288 22.3789
lfingers 7.12502
lthumb 8.95746 52.1688
rfemur -44.0688 -7.5956 20.7144
rtibia 40.6013
rfoot -6.20647 -9.63262
rtoes -12.9698
lfemur -44.8254 -0.549824 -18.4257
ltibia 43.4808
lfoot -8.01364 3.86951
ltoes -19.1298
